#!OML:ASF X:\für Bonn\!DataBase\2005_08_12_Daniel\c3d\Daniel.ASF
:FULLY-SPECIFIED
:DEGREES
53
root -8.48222 19.4221 -1.30397 509.614 95.3031 -2006.93
lowerback 18.9255 -0.877959 -0.966146
upperback 5.61293 -1.05255 -0.708759
thorax -4.54025 -0.378338 0.0199455
lowerneck -7.14386 2.00774 -6.76637
upperneck -0.305032 3.2344 1.67601
head 0.982699 1.65798 1.7805
rclavicle -1.68967e-014 3.18055e-015
rhumerus -68.7601 -6.38805 -62.6553
rradius 19.9767
rwrist 25.0176
rhand -29.3786 25.8337
rfingers 7.12502
rthumb -2.71737 -4.12869
lclavicle -1.68967e-014 3.18055e-015
lhumerus -76.9872 12.0125 57.6834
lradius 29.9036
lwrist -23.5243
lhand -7.64232 -16.7271
lfingers 7.12502
lthumb 18.253 12.4365
rfemur -18.0415 -0.0725738 24.4504
rtibia 32.4007
rfoot 11.6782 -1.92642
rtoes -19.7158
lfemur -22.2418 -6.15988 -16.5867
ltibia 44.6177
lfoot 5.33256 5.30776
ltoes -2.00704
54
root -8.26761 19.2612 -1.31602 510.253 95.4222 -2006.26
lowerback 19.4098 -0.831214 -1.11119
upperback 5.72164 -1.01104 -0.728472
thorax -4.67482 -0.351016 0.0760914
lowerneck -7.16423 1.97396 -6.59304
upperneck -0.721308 3.18257 1.53237
head 0.859387 1.64047 1.69555
rclavicle 6.75868e-015 7.95139e-015
rhumerus -67.7737 -7.14647 -63.7677
rradius 20.9274
rwrist 22.5928
rhand -29.5593 26.1344
rfingers 7.12502
rthumb -2.89189 -3.82572
lclavicle 6.75868e-015 7.95139e-015
lhumerus -76.2508 12.5926 59.0214
lradius 31.1523
lwrist -21.3386
lhand -7.8254 -17.0275
lfingers 7.12502
lthumb 18.0768 12.1524
rfemur -18.7297 0.621097 24.3082
rtibia 31.9558
rfoot 12.1742 -2.00249
rtoes -20.0117
lfemur -22.8819 -7.45844 -16.196
ltibia 44.6033
lfoot 5.11787 6.79566
ltoes -1.69296
55
root -8.0532 19.079 -1.32971 510.659 95.5616 -2005.78
lowerback 19.9692 -0.76837 -1.21104
upperback 5.79461 -0.943989 -0.747998
thorax -4.88707 -0.311044 0.101111
lowerneck -7.18128 1.92716 -6.31061
upperneck -1.10425 3.10465 1.34151
head 0.749385 1.60809 1.57651
rclavicle 3.27995e-014 5.56597e-015
rhumerus -66.7152 -8.05615 -64.6809
rradius 21.7896
rwrist 20.4893
rhand -29.6243 26.4698
rfingers 7.12502
rthumb -2.95464 -3.48947
lclavicle 3.27995e-014 5.56597e-015
lhumerus -75.5115 13.0422 60.4416
lradius 32.6245
lwrist -19.0205
lhand -7.9511 -17.2934
lfingers 7.12502
lthumb 17.9559 11.8978
rfemur -19.3473 1.26798 24.1907
rtibia 31.7278
rfoot 12.6478 -1.77741
rtoes -19.4255
lfemur -23.5573 -8.69459 -15.7617
ltibia 44.893
lfoot 4.78551 7.90788
ltoes -2.02732
56
root -7.8401 18.8755 -1.34493 510.5 95.7459 -2005.78
lowerback 20.6403 -0.719318 -1.24977
upperback 5.87651 -0.881814 -0.741833
thorax -5.14725 -0.272408 0.119767
lowerneck -7.2679 1.89241 -5.98596
upperneck -1.48507 3.04524 1.08377
head 0.652624 1.58412 1.43125
rclavicle -6.95746e-015 -4.77083e-015
rhumerus -65.6167 -8.66073 -65.9704
rradius 22.8177
rwrist 18.1255
rhand -29.694 26.7365
rfingers 7.12502
rthumb -3.02191 -3.22179
lclavicle -6.95746e-015 -4.77083e-015
lhumerus -74.7751 13.4966 61.8314
lradius 34.2687
lwrist -16.7695
lhand -8.02064 -17.4808
lfingers 7.12502
lthumb 17.889 11.7165
rfemur -19.8792 1.88694 24.1489
rtibia 31.8662
rfoot 12.8432 -1.34047
rtoes -17.8998
lfemur -24.1977 -9.73083 -15.2799
ltibia 45.5107
lfoot 4.21679 8.52277
ltoes -2.77759
57
root -7.62677 18.6569 -1.36151 510.683 95.9181 -2005.38
lowerback 21.3844 -0.665134 -1.30717
upperback 5.92587 -0.821631 -0.760298
thorax -5.47869 -0.234283 0.122611
lowerneck -7.25209 1.86579 -5.62088
upperneck -1.87041 2.9852 0.804398
head 0.537936 1.55877 1.27128
rclavicle -1.21259e-014 -7.95139e-016
rhumerus -64.6344 -8.9508 -67.5918
rradius 24.15
rwrist 15.5231
rhand -29.7506 26.7518
rfingers 7.12502
rthumb -3.07664 -3.20575
lclavicle -1.21259e-014 -7.95139e-016
lhumerus -74.1624 13.717 63.3782
lradius 36.2254
lwrist -14.3463
lhand -8.083 -17.5946
lfingers 7.12502
lthumb 17.829 11.6081
rfemur -20.4667 2.35748 24.09
rtibia 32.5423
rfoot 12.6554 -0.547921
rtoes -15.7049
lfemur -24.8305 -10.6266 -14.8661
ltibia 46.4569
lfoot 3.34838 8.7923
ltoes -4.78805
58
root -7.41442 18.4292 -1.37864 510.447 96.1136 -2005.32
lowerback 22.2014 -0.610313 -1.30658
upperback 5.96955 -0.748102 -0.758327
thorax -5.85281 -0.189366 0.109825
lowerneck -7.19895 1.83867 -5.35013
upperneck -2.29527 2.92872 0.603994
head 0.402872 1.53734 1.15301
rclavicle -2.98177e-015 1.35174e-014
rhumerus -63.6723 -8.88846 -69.568
rradius 25.7816
rwrist 12.7875
rhand -29.9217 26.4809
rfingers 7.12502
rthumb -3.24182 -3.4742
lclavicle -2.98177e-015 1.35174e-014
lhumerus -73.4439 13.8373 64.9953
lradius 38.2355
lwrist -11.8814
lhand -8.20436 -17.532
lfingers 7.12502
lthumb 17.7122 11.6813
rfemur -21.1575 2.70812 24.1008
rtibia 33.8132
rfoot 11.9602 0.485133
rtoes -13.207
lfemur -25.4587 -11.2931 -14.4358
ltibia 47.7073
lfoot 2.2053 8.67576
ltoes -7.07376
59
root -7.20245 18.1903 -1.39765 510.278 96.3401 -2005.11
lowerback 23.0875 -0.566963 -1.28322
upperback 6.00611 -0.685845 -0.768484
thorax -6.26824 -0.149645 0.0724806
lowerneck -7.16153 1.82728 -5.03542
upperneck -2.67458 2.89054 0.347125
head 0.285841 1.52302 1.01162
rclavicle -4.17448e-015 -7.95139e-016
rhumerus -62.4135 -9.01834 -71.313
rradius 27.1586
rwrist 10.7281
rhand -30.3911 26.2733
rfingers 7.12502
rthumb -3.69513 -3.67446
lclavicle -4.17448e-015 -7.95139e-016
lhumerus -72.4651 14.0113 66.5121
lradius 40.0425
lwrist -9.57626
lhand -8.40374 -17.2757
lfingers 7.12502
lthumb 17.5203 11.9548
rfemur -21.788 3.05383 24.1154
rtibia 35.7096
rfoot 10.4924 1.77053
rtoes -10.5098
lfemur -26.0402 -11.7828 -14.0634
ltibia 49.2509
lfoot 0.654831 8.37305
ltoes -9.81812
60
root -6.99167 17.9448 -1.41794 510.055 96.5573 -2004.94
lowerback 24.0018 -0.516956 -1.23625
upperback 6.01699 -0.610472 -0.772496
thorax -6.72403 -0.104272 0.0227419
lowerneck -7.04352 1.81519 -4.79993
upperneck -3.09236 2.85205 0.172496
head 0.142187 1.51047 0.909037
rclavicle 5.96354e-015 -1.59028e-015
rhumerus -60.9832 -8.93946 -73.2574
rradius 28.5835
rwrist 8.78581
rhand -31.1274 25.8974
rfingers 7.12502
rthumb -4.40611 -4.03673
lclavicle 5.96354e-015 -1.59028e-015
lhumerus -71.1993 14.1301 68.0447
lradius 41.6152
lwrist -7.42518
lhand -8.78787 -16.8599
lfingers 7.12502
lthumb 17.1506 12.4032
rfemur -22.4343 3.2614 24.1473
rtibia 38.1726
rfoot 8.11412 3.32893
rtoes -8.25256
lfemur -26.6257 -12.2469 -13.7467
ltibia 51.127
lfoot -1.49586 8.13777
ltoes -11.9289
61
root -6.78244 17.6896 -1.4388 509.666 96.8048 -2004.87
lowerback 24.9398 -0.472517 -1.13969
upperback 6.03653 -0.528228 -0.777511
thorax -7.18034 -0.0562423 -0.0609195
lowerneck -7.03126 1.79006 -4.55884
upperneck -3.45442 2.80239 -0.0205508
head 0.0344337 1.49122 0.802626
rclavicle -1.03368e-014 7.95139e-015
rhumerus -59.7006 -8.34596 -75.6162
rradius 30.5926
rwrist 6.65987
rhand -32.1355 25.4064
rfingers 7.12502
rthumb -5.3796 -4.50536
lclavicle -1.03368e-014 7.95139e-015
lhumerus -69.7704 14.1229 69.649
lradius 43.1677
lwrist -5.31697
lhand -9.32194 -16.2627
lfingers 7.12502
lthumb 16.6365 13.0443
rfemur -23.0943 3.4481 24.2213
rtibia 41.1418
rfoot 4.9934 4.92098
rtoes -6.47602
lfemur -27.139 -12.608 -13.4847
ltibia 53.3519
lfoot -4.31328 7.92346
ltoes -12.814
62
root -6.5752 17.4186 -1.46074 509.218 97.0764 -2004.86
lowerback 25.768 -0.440567 -0.996813
upperback 6.08616 -0.444369 -0.768268
thorax -7.5453 -0.00909969 -0.158589
lowerneck -7.10674 1.77072 -4.44075
upperneck -3.76988 2.77506 -0.121696
head -0.0473887 1.48427 0.748422
rclavicle 1.39149e-015 -5.56597e-015
rhumerus -58.3542 -7.44506 -78.0934
rradius 32.9213
rwrist 4.63859
rhand -33.3124 24.9632
rfingers 7.12502
rthumb -6.51579 -4.91662
lclavicle 1.39149e-015 -5.56597e-015
lhumerus -68.1243 14.054 71.3502
lradius 44.6933
lwrist -3.35496
lhand -10.0146 -15.5158
lfingers 7.12502
lthumb 15.9696 13.8459
rfemur -23.8158 3.62371 24.3293
rtibia 44.5215
rfoot 1.41138 6.36775
rtoes -4.83606
lfemur -27.5728 -12.7048 -13.2952
ltibia 55.9347
lfoot -7.73845 7.52492
ltoes -13.685
63
root -6.37068 17.1341 -1.48533 508.882 97.337 -2004.72
lowerback 26.594 -0.422803 -0.811378
upperback 6.11789 -0.36928 -0.794073
thorax -7.92683 0.031945 -0.318885
lowerneck -7.21727 1.75767 -4.22651
upperneck -4.06575 2.75061 -0.256247
head -0.115801 1.47698 0.668651
rclavicle -6.95746e-015 4.77083e-015
rhumerus -56.9027 -6.57604 -80.4551
rradius 35.3052
rwrist 3.12823
rhand -34.5721 24.8172
rfingers 7.12502
rthumb -7.7318 -5.02143
lclavicle -6.95746e-015 4.77083e-015
lhumerus -66.3075 13.8018 73.0851
lradius 46.1978
lwrist -1.41403
lhand -10.8547 -14.6638
lfingers 7.12502
lthumb 15.1604 14.7609
rfemur -24.5926 3.74318 24.4157
rtibia 48.2203
rfoot -2.5027 7.62552
rtoes -3.61378
lfemur -27.8813 -12.5943 -13.236
ltibia 58.794
lfoot -11.7053 6.98192
ltoes -15.0189
64
root -6.16765 16.8506 -1.51299 508.461 97.6209 -2004.7
lowerback 27.3494 -0.424888 -0.550638
upperback 6.14456 -0.297208 -0.825618
thorax -8.27651 0.0684188 -0.530167
lowerneck -7.41484 1.73835 -4.06662
upperneck -4.29954 2.72686 -0.336687
head -0.15227 1.46967 0.616864
rclavicle 9.74045e-015 -7.15625e-015
rhumerus -55.2113 -5.76585 -82.6581
rradius 37.5596
rwrist 2.16578
rhand -35.8293 25.1204
rfingers 7.12502
rthumb -8.94504 -4.67003
lclavicle 9.74045e-015 -7.15625e-015
lhumerus -64.2835 13.4313 74.8447
lradius 47.6748
lwrist 0.327236
lhand -11.7837 -13.7388
lfingers 7.12502
lthumb 14.2655 15.7512
rfemur -25.4554 3.86591 24.5355
rtibia 52.0958
rfoot -6.47605 8.63817
rtoes -3.32403
lfemur -28.1564 -12.3994 -13.1888
ltibia 61.7647
lfoot -15.7264 6.3463
ltoes -15.6753
65
root -5.96702 16.5742 -1.54225 508.022 97.8942 -2004.68
lowerback 28.1358 -0.43696 -0.279387
upperback 6.1478 -0.231244 -0.84628
thorax -8.66517 0.100129 -0.735905
lowerneck -7.58366 1.72309 -3.92949
upperneck -4.54322 2.70789 -0.444742
head -0.196577 1.46512 0.560043
rclavicle -8.15017e-015 -1.59028e-014
rhumerus -53.1858 -5.02953 -84.6313
rradius 39.4026
rwrist 1.8246
rhand -36.9507 25.9846
rfingers 7.12502
rthumb -10.0271 -3.75657
lclavicle -8.15017e-015 -1.59028e-014
lhumerus -62.0972 12.905 76.6266
lradius 49.1087
lwrist 1.9108
lhand -12.6159 -12.9404
lfingers 7.12502
lthumb 13.4634 16.6044
rfemur -26.3141 3.92538 24.6739
rtibia 55.9545
rfoot -10.5048 9.45316
rtoes -4.91052
lfemur -28.2231 -12.161 -13.2303
ltibia 64.7087
lfoot -19.8694 5.71284
ltoes -16.1512
66
root -5.76893 16.3097 -1.57473 507.645 98.1794 -2004.68
lowerback 28.8744 -0.45089 0.0235234
upperback 6.12499 -0.156136 -0.861961
thorax -9.05706 0.132716 -0.959692
lowerneck -7.89078 1.68876 -3.79084
upperneck -4.6839 2.67047 -0.54747
head -0.186689 1.44925 0.507156
rclavicle -2.88238e-014 -1.98785e-014
rhumerus -50.6967 -4.27578 -86.4534
rradius 40.6508
rwrist 1.96465
rhand -37.9417 27.3402
rfingers 7.12502
rthumb -10.9831 -2.35251
lclavicle -2.88238e-014 -1.98785e-014
lhumerus -59.3016 12.3426 78.3342
lradius 49.9307
lwrist 3.06063
lhand -13.4303 -12.385
lfingers 7.12502
lthumb 12.6784 17.2102
rfemur -27.1901 4.00695 24.8339
rtibia 59.6219
rfoot -14.203 9.94494
rtoes -6.32073
lfemur -28.1891 -11.8917 -13.3043
ltibia 67.4876
lfoot -23.9026 5.15842
ltoes -16.955
